<?xml version="1.0" encoding="UTF-8"?>
<svg width="355px" height="350px" viewBox="0 0 355 350" version="1.1" xmlns="http://www.w3.org/2000/svg" xmlns:xlink="http://www.w3.org/1999/xlink">
    <title>Group 4</title>
    <g id="Page-1" stroke="none" stroke-width="1" fill="none" fill-rule="evenodd">
        <g id="Artboard" transform="translate(-1258.000000, -2422.000000)">
            <g id="Group-4" transform="translate(1233.278450, 2379.045834)">
                <polygon id="Path" fill="#C5DEE0" transform="translate(212.348057, 220.500000) rotate(100.000000) translate(-212.348057, -220.500000) " points="280.66084 39 21 107.897936 168.591245 402 403.696114 370.074962"></polygon>
                <g id="conversation" transform="translate(24.721550, 42.954166)" fill="#316252" fill-rule="nonzero">
                    <path d="M236.073249,217.857374 C232.305629,217.857374 229.250322,220.922672 229.250322,224.704142 L229.250322,271.946843 C229.250322,290.823382 213.946499,306.180684 195.135691,306.180684 L121.469921,306.180684 C117.702983,306.180684 114.649724,309.243243 114.646995,313.022659 L114.637442,326.635404 L98.352482,310.294222 C97.2983399,307.865673 94.8857532,306.180684 92.0951764,306.180684 L47.7604838,306.180684 C28.9496761,306.180684 13.6458525,290.823382 13.6458525,271.946843 L13.6458525,166.506612 C13.6458525,147.630072 28.9496761,132.272771 47.7604838,132.272771 L116.672039,132.272771 C120.439659,132.272771 123.494965,129.207473 123.494965,125.426003 C123.494965,121.644533 120.439659,118.579235 116.672039,118.579235 L47.7604838,118.579235 C21.425353,118.579235 0,140.079456 0,166.506612 L0,271.946843 C0,298.373998 21.425353,319.87422 47.7604838,319.87422 L88.6011558,319.87422 L116.623596,347.994582 C117.928822,349.304368 119.673444,350 121.449452,350 C122.327563,350 123.213861,349.829515 124.056492,349.479646 C126.60622,348.421135 128.268967,345.926173 128.271014,343.158025 L128.287389,319.87422 L195.135691,319.87422 C221.470822,319.87422 242.896175,298.373998 242.896175,271.946843 L242.896175,224.704142 C242.896175,220.922672 239.840868,217.857374 236.073249,217.857374 Z" id="Path"></path>
                    <path d="M250.594958,0 L233.285507,0 C178.473042,0 133.879781,44.5293772 133.879781,99.263318 C133.879781,153.997259 178.473042,198.525953 233.284823,198.525953 L250.594274,198.525953 C259.149489,198.525953 267.617161,197.440754 275.824258,195.296306 L301.394152,220.815228 C302.702501,222.120336 304.450612,222.814208 306.230184,222.814208 C307.111763,222.814208 308.000865,222.644154 308.84688,222.293804 C311.402023,221.236605 313.068064,218.746587 313.068064,215.984758 L313.068064,176.472295 C323.893909,167.717623 332.886835,156.658695 339.198093,144.304221 C346.366308,130.272434 350,115.118568 350,99.263318 C350,44.5293772 305.406739,0 250.594958,0 Z M302.113641,167.686891 C300.399042,168.976974 299.389569,170.997125 299.389569,173.142255 L299.389569,199.50393 L282.653247,182.800462 C281.351054,181.501501 279.60431,180.801483 277.817899,180.801483 C277.147653,180.801483 276.470567,180.90051 275.809896,181.103344 C267.66914,183.601557 259.185737,184.867737 250.594958,184.867737 L233.285507,184.867737 C186.014681,184.867737 147.558276,146.465742 147.558276,99.263318 C147.558276,52.0608942 186.015365,13.6588992 233.285507,13.6588992 L250.594958,13.6588992 C297.865101,13.6588992 336.321505,52.0608942 336.321505,99.263318 C336.321505,126.397404 323.853557,151.337188 302.113641,167.686891 Z" id="Shape"></path>
                    <path d="M273.425472,74.5803096 C272.43138,60.3430366 260.805389,48.8661692 246.382436,47.8848276 C238.20649,47.3305703 230.403931,50.0528919 224.431798,55.5567014 C218.541645,60.9843429 215.163934,68.6568968 215.163934,76.6075994 C215.163934,80.363628 218.248859,83.408303 222.053003,83.408303 C225.857146,83.408303 228.942071,80.363628 228.942071,76.6075994 C228.942071,72.351039 230.679494,68.4059508 233.833309,65.5000101 C236.984369,62.5967898 241.102654,61.1598011 245.435878,61.4549516 C253.033142,61.9718051 259.156835,68.0169506 259.680404,75.5160864 C260.209484,83.0900301 255.175642,89.7832826 247.712026,91.4317731 C241.664802,92.7674313 237.441803,97.955008 237.441803,104.046398 L237.441803,120.385089 C237.441803,124.141117 240.526728,127.185792 244.330871,127.185792 C248.135703,127.185792 251.219939,124.141117 251.21925,120.385089 L251.21925,104.589774 C265.100723,101.279192 274.414054,88.7400546 273.425472,74.5803096 Z" id="Path"></path>
                    <path d="M248.585109,143.491393 C247.340027,142.246311 245.612978,141.530055 243.852459,141.530055 C242.09194,141.530055 240.364891,142.246311 239.119809,143.491393 C237.874727,144.736475 237.15847,146.463525 237.15847,148.224044 C237.15847,149.991257 237.875396,151.718306 239.119809,152.963388 C240.364891,154.20847 242.09194,154.918033 243.852459,154.918033 C245.612978,154.918033 247.340027,154.20847 248.585109,152.963388 C249.830191,151.711612 250.546448,149.991257 250.546448,148.224044 C250.546448,146.463525 249.829522,144.736475 248.585109,143.491393 Z" id="Path"></path>
                    <path d="M188.251366,212.295082 L44.1256831,212.295082 C40.3538251,212.295082 37.295082,215.291981 37.295082,218.989071 C37.295082,222.686161 40.3538251,225.68306 44.1256831,225.68306 L188.251366,225.68306 C192.023907,225.68306 195.081967,222.686161 195.081967,218.989071 C195.081967,215.291981 192.023224,212.295082 188.251366,212.295082 Z" id="Path"></path>
                    <path d="M193.119959,252.507787 C191.875546,251.262705 190.148497,250.546448 188.387978,250.546448 C186.627459,250.546448 184.90041,251.262705 183.655328,252.507787 C182.409577,253.752869 181.693989,255.479918 181.693989,257.240437 C181.693989,259.000956 182.410246,260.728005 183.655328,261.973087 C184.90041,263.218169 186.627459,263.934426 188.387978,263.934426 C190.148497,263.934426 191.875546,263.218169 193.119959,261.973087 C194.36571,260.728005 195.081967,259.00765 195.081967,257.240437 C195.081967,255.479918 194.365041,253.752869 193.119959,252.507787 Z" id="Path"></path>
                    <path d="M161.47067,250.546448 L44.1304229,250.546448 C40.3559476,250.546448 37.295082,253.543347 37.295082,257.240437 C37.295082,260.937527 40.3559476,263.934426 44.1304229,263.934426 L161.47067,263.934426 C165.245829,263.934426 168.306011,260.937527 168.306011,257.240437 C168.306011,253.543347 165.245145,250.546448 161.47067,250.546448 Z" id="Path"></path>
                    <path d="M143.281322,174.043716 L43.1940878,174.043716 C39.4085967,174.043716 36.3387978,177.040615 36.3387978,180.737705 C36.3387978,184.434795 39.4085967,187.431694 43.1940878,187.431694 L143.281322,187.431694 C147.067499,187.431694 150.136612,184.434795 150.136612,180.737705 C150.136612,177.040615 147.066813,174.043716 143.281322,174.043716 Z" id="Path"></path>
                </g>
            </g>
        </g>
    </g>
</svg>