<?xml version="1.0" encoding="UTF-8"?>
<svg width="327px" height="242px" viewBox="0 0 327 242" version="1.1" xmlns="http://www.w3.org/2000/svg" xmlns:xlink="http://www.w3.org/1999/xlink">
    <title>Group 2</title>
    <g id="Page-1" stroke="none" stroke-width="1" fill="none" fill-rule="evenodd">
        <g id="Artboard" transform="translate(-1132.000000, -4649.000000)">
            <g id="Group-2" transform="translate(1109.244767, 4600.981228)">
                <polygon id="Path" fill="#C5DEE0" transform="translate(192.035317, 172.594698) rotate(100.000000) translate(-192.035317, -172.594698) " points="239.910561 4 47 67.4627085 153.144717 341.189395 337.070633 318.91256"></polygon>
                <g id="mail" transform="translate(50.755233, 74.018772)" fill="#316252" fill-rule="nonzero">
                    <path d="M270,32.3761261 C270,23.2662348 266.679382,15.0220535 261.342087,9.13335195 C261.276169,9.05358498 261.208191,8.97616336 261.138153,8.89874234 C255.829697,3.16019159 248.881531,0 241.576996,0 L28.4230044,0 C21.1184692,0 14.1703035,3.16019159 8.86184719,8.89874234 C8.79180908,8.97616336 8.72383131,9.05358498 8.65791334,9.13335195 C3.32061768,15.0220535 0,23.2638889 0,32.3761261 L0,167.189846 C0,175.387106 2.68821703,182.882883 7.11502102,188.59328 C7.19329834,188.705893 7.2756958,188.818506 7.3622134,188.928772 C9.43038914,191.525901 11.836395,193.698386 14.4689941,195.387575 C17.9276277,197.616366 21.8353271,199.045139 25.9943391,199.448667 L26.0005191,199.448667 C26.0396575,199.45336 26.0787964,199.455706 26.1179353,199.460398 C26.8821714,199.530781 27.6525879,199.565972 28.4230044,199.565972 L241.576996,199.565972 C242.347412,199.565972 243.117829,199.530781 243.882065,199.460398 C243.921204,199.455706 243.960343,199.45336 243.999481,199.448667 L244.005661,199.448667 C248.164673,199.045139 252.072372,197.616366 255.531006,195.387575 C258.165665,193.698386 260.569611,191.525901 262.637787,188.928772 C262.724304,188.818506 262.806702,188.70824 262.884979,188.59328 C267.309723,182.882883 270,175.389452 270,167.192192 L270,32.3761261 Z M250.482101,184.841873 C250.459442,184.85595 250.438843,184.86768 250.418244,184.881757 C250.395584,184.895833 250.372925,184.912256 250.350265,184.926333 C248.315048,186.233108 246.063538,187.082395 243.72757,187.406156 C243.72551,187.406156 243.72345,187.406156 243.71933,187.406156 C243.674011,187.413195 243.626633,187.420233 243.581314,187.424925 C242.922135,187.509384 242.252655,187.55396 241.574936,187.55396 L28.4250642,187.55396 C27.7473452,187.55396 27.0778655,187.509384 26.4186858,187.424925 C26.3713071,187.420233 26.3218686,187.413195 26.2744905,187.406156 C23.9282227,187.080049 21.6684724,186.22607 19.6270752,184.912256 L19.6126555,184.902871 C19.5755769,184.879411 19.5405581,184.85595 19.503479,184.832489 C19.1635896,184.607264 18.83194,184.372654 18.5064697,184.123968 L41.9403076,150.140766 C43.7406919,147.534253 43.3410645,143.757038 41.050415,141.708896 C38.7618254,139.658408 35.4453279,140.113551 33.6470034,142.72241 L11.7354582,174.495589 C10.9691619,172.226914 10.546875,169.763514 10.546875,167.189846 L10.546875,32.3761261 C10.546875,28.5402589 11.4841463,24.9483856 13.109436,21.8820384 L74.5985415,83.6312877 L59.8617554,104.938532 C58.0593108,107.545045 58.4527588,111.319914 60.7413484,113.372748 C61.7074585,114.240804 62.8569028,114.660754 64.0001677,114.660754 C65.5595395,114.660754 67.106552,113.874812 68.1468198,112.370965 L82.5210571,91.5868997 L114.610749,123.812876 C120.423889,129.647616 127.711945,132.56616 135,132.56616 C142.288055,132.56616 149.576111,129.647616 155.389251,123.812876 L187.478943,91.5868997 L251.48735,184.12866 C251.159821,184.377346 250.824051,184.616648 250.482101,184.841873 L250.482101,184.841873 Z M28.4250642,12.014358 L241.574936,12.014358 C244.205475,12.014358 246.706238,12.664227 248.957748,13.8325826 L184.751587,78.3126877 C184.698029,78.3619556 184.64653,78.41357 184.597092,78.4675303 L148.414307,114.803867 C140.767822,122.482639 129.234238,122.482639 121.587753,114.803867 L85.4049683,78.4675303 C85.35347,78.41357 85.3019712,78.3619556 85.2484131,78.3103417 L21.0401919,13.8325826 C23.2937622,12.664227 25.7945249,12.014358 28.4250642,12.014358 Z M195.401458,83.6289417 L256.890564,21.8820384 C258.515854,24.9483856 259.453125,28.5402589 259.453125,32.3761261 L259.453125,167.189846 C259.453125,169.768205 259.030838,172.236299 258.260422,174.50732 L195.401458,83.6289417 Z" id="Shape"></path>
                    <path d="M56.46698,124.282095 C56.335144,123.920796 56.1785889,123.573574 55.9890747,123.249813 C55.7933806,122.919013 55.5709075,122.611674 55.329895,122.334835 C55.0868228,122.060342 54.816971,121.806963 54.52652,121.584084 C54.2422485,121.368243 53.9373779,121.182902 53.620148,121.032751 C53.2987973,120.882601 52.9671477,120.767643 52.6293181,120.690222 C51.9536589,120.533033 51.2532805,120.533033 50.5714419,120.690222 C50.2356721,120.767643 49.9019621,120.882601 49.586792,121.032751 C49.2654419,121.182902 48.9585115,121.368243 48.67424,121.584084 C48.3837891,121.806963 48.1139372,122.060342 47.8729248,122.334835 C47.629852,122.611674 47.4073794,122.919013 47.2178647,123.249813 C47.0283511,123.573574 46.865616,123.920796 46.73378,124.282095 C46.6019441,124.648085 46.4968872,125.025807 46.433029,125.405874 C46.3650513,125.795327 46.3279721,126.191817 46.3279721,126.581268 C46.3279721,126.973067 46.3650513,127.369557 46.433029,127.754317 C46.4968872,128.13673 46.6019441,128.516798 46.73378,128.875751 C46.865616,129.241742 47.0283511,129.59131 47.2178647,129.915071 C47.4073794,130.245871 47.629852,130.550864 47.8729248,130.827703 C48.1139372,131.104542 48.3837891,131.357921 48.67424,131.573761 C48.9585115,131.789602 49.2654419,131.974944 49.586792,132.125094 C49.9019621,132.275244 50.2356721,132.390203 50.5714419,132.467624 C50.909271,132.545045 51.2574006,132.587274 51.6014096,132.587274 C51.9433594,132.587274 52.2914885,132.545045 52.6293181,132.467624 C52.9671477,132.390203 53.2987973,132.275244 53.620148,132.125094 C53.9373779,131.974944 54.2422485,131.789602 54.52652,131.573761 C54.816971,131.357921 55.0868228,131.104542 55.329895,130.827703 C55.5709075,130.550864 55.7933806,130.245871 55.9890747,129.915071 C56.1785889,129.59131 56.335144,129.241742 56.46698,128.875751 C56.5988159,128.516798 56.7059326,128.13673 56.7739104,127.754317 C56.8418882,127.369557 56.8748471,126.973067 56.8748471,126.581268 C56.8748471,126.191817 56.8418882,125.795327 56.7739104,125.405874 C56.7059326,125.025807 56.5988159,124.648085 56.46698,124.282095 Z" id="Path"></path>
                </g>
            </g>
        </g>
    </g>
</svg>