<?xml version="1.0" encoding="UTF-8"?>
<svg width="542px" height="503px" viewBox="0 0 542 503" version="1.1" xmlns="http://www.w3.org/2000/svg" xmlns:xlink="http://www.w3.org/1999/xlink">
    <title>dev</title>
    <g id="Page-1" stroke="none" stroke-width="1" fill="none" fill-rule="evenodd">
        <g id="Artboard" transform="translate(-207.000000, -1329.000000)">
            <g id="dev" transform="translate(207.000000, 1329.000000)">
                <ellipse id="Oval" fill="#F8D7BD" fill-rule="nonzero" cx="277.5" cy="86.5" rx="54.5" ry="53.5"></ellipse>
                <path d="M237.117246,113 C237.117246,113 247.433975,189.942212 231.562092,198.578511 C215.690209,207.21481 326,208 326,208 C326,208 301.398536,141.26446 312.508845,120.851197 L237.117246,113 Z" id="Path" fill="#F8D7BD" fill-rule="nonzero"></path>
                <path d="M406,207.181311 L396.862113,248.166249 L377.540526,334.877519 L376.961991,339.62622 L370.294004,394.601559 L365.858568,431.122719 L362.884305,455.655236 C344.801376,464.809269 331.695332,471.128694 331.695332,471.128694 C331.695332,471.128694 330.567931,465.561756 328.750737,458.438705 C316.060052,462.186525 292.577463,468.40367 272.677341,469.645638 C279.923863,477.601538 283.254148,485.075261 278.737124,490.59106 C265.104465,507.218817 208.823389,472.385273 189.138363,459.395751 C188.680077,462.505831 188.506313,465.65017 188.619165,468.790872 L173.555003,457.379379 L175.045843,431.122719 L177.560245,386.6968 L180.719937,330.983585 C179.723619,328.598008 178.888607,326.150127 178.220369,323.655975 C173.606923,307.495782 168.007,275.226536 163.71249,248.166249 C160.256114,226.387978 157.660123,207.984938 157.111257,204.069086 C157.037086,203.557688 157,203.294683 157,203.294683 L240.390635,167 C246.31691,180.537449 273.990207,184.60672 273.990207,184.60672 C296.916513,183.050608 314.888185,171.142328 314.888185,171.142328 L406,207.181311 Z" id="Path" fill="#D0CDE1" fill-rule="nonzero"></path>
                <path d="M337,456.443128 C337,456.443128 333.503508,457.654472 327.818037,459.371161 C315.249765,463.183549 291.993689,469.507803 272.285522,470.771168 C255.317254,471.871038 240.9787,469.225404 238.356332,458.02605 C237.232459,453.210402 238.826448,449.249382 242.300903,445.994361 C252.672849,436.266455 279.763313,432.781055 301.249108,431.584574 C307.316549,431.250154 312.928565,431.094092 317.600348,431.034639 C325.533564,430.930598 330.734228,431.094092 330.734228,431.094092 L330.859103,431.584574 L337,456.443128 Z" id="Path" fill="#A0616A" fill-rule="nonzero"></path>
                <path d="M232.417642,35.5241845 L222.234309,31.5210006 C222.234309,31.5210006 243.52668,8.50271359 273.151097,10.5043891 L264.81905,1.49714733 C264.81905,1.49714733 285.185708,-6.50913306 303.700835,14.5074712 C313.433891,25.5554132 324.695122,38.5417593 331.715311,53.1706829 L342.620963,53.1706829 L338.069357,63.011784 L354,72.8528925 L337.648758,71.0852267 C338.6231,76.4743271 338.772653,81.9760651 338.092473,87.4085302 C337.391025,92.8426492 334.566942,97.7966104 330.216242,101.224889 L330.216242,101.224889 C330.216242,101.224889 317.58705,75.5558701 317.58705,71.5526717 L317.58705,81.5606349 C317.58705,81.5606349 307.403725,72.5535095 307.403725,66.548781 L301.849232,73.5543254 L299.071989,62.5455244 L264.819072,73.5543254 L270.373558,64.5472364 L249.081188,67.549597 L257.413235,56.540796 C257.413235,56.540796 233.343621,69.5511198 232.417664,80.5599426 C231.492025,91.5685909 224.446743,102 224.446743,102 C224.446743,102 205.570719,50.5360311 232.417642,35.5241845 Z" id="Path" fill="#2F2E41" fill-rule="nonzero"></path>
                <path d="M465.036737,396.172548 C459.486956,402.128429 445.734762,411.098923 429.06319,420.810236 C422.861365,424.418971 416.259423,428.137729 409.524107,431.834482 C393.452712,440.65828 376.625539,449.401395 362.739972,456.464834 C344.675398,465.655374 331.582657,472 331.582657,472 C331.582657,472 330.456399,466.410861 328.641051,459.259404 C326.210706,449.687453 322.55037,437.313598 318.734432,431.834482 C318.60106,431.643776 318.467687,431.467741 318.334314,431.291705 C317.222876,429.846744 316.104029,429.003238 315,429.003238 L370.14215,395.167677 L393.971383,380.54203 L376.803369,339.973096 L355.271108,289.08406 L368.267524,248.148385 L381.330627,207 L405.811904,207 C405.811904,207 413.917993,224.515569 424.284006,248.940583 C425.83261,252.593327 427.43308,256.400103 429.06319,260.331571 C450.387975,311.675323 476.973575,383.373266 465.036737,396.172548 Z" id="Path" fill="#D0CDE1" fill-rule="nonzero"></path>
                <path d="M278.933741,490.613647 C265.23091,507.156218 208.660134,472.501131 188.873782,459.578156 C184.564621,456.765338 182,454.984613 182,454.984613 L200.101455,431.449971 L205.834577,424 C205.834577,424 210.96382,426.652917 218.545854,430.970266 C218.8217,431.130168 219.097546,431.29007 219.380847,431.449971 C225.919141,435.193128 234.12742,440.08467 242.410253,445.543137 C253.839219,453.080328 265.394926,461.678685 272.842765,469.775532 C280.126618,477.690651 283.474038,485.126071 278.933741,490.613647 Z" id="Path" fill="#A0616A" fill-rule="nonzero"></path>
                <path d="M218,430.809576 C215.989548,430.80195 213.982094,430.963428 211.999412,431.292259 C194.968115,434.18104 189.945401,449.400166 188.515631,459.595005 C188.057899,462.708354 187.884346,465.855997 187.997062,469 L172.951144,457.576514 L167.469125,453.415206 C154.275241,448.873603 142.518534,440.806955 132.324943,431.292259 C123.481801,422.892085 115.549313,413.605158 108.655958,403.581896 C101.789943,393.702803 95.6691351,383.338622 90.3430537,372.573203 C87.334498,366.491371 87.2177932,359.404498 90.024504,353.229336 L108.655958,312.237892 L135.888255,252.326756 C136.088245,250.900688 136.308007,249.506271 136.547542,248.143508 C141.948071,217.573617 156.416154,204 156.416154,204 L167.469088,204 L174.862405,248.143508 L184.04849,302.986477 L177.610822,323.712571 L162.735291,371.578548 L176.951499,386.819613 L218,430.809576 Z" id="Path" fill="#D0CDE1" fill-rule="nonzero"></path>
                <path d="M230.989609,303.350673 L240.447137,314.544188 C243.960867,313.864557 247.630189,313.065889 251.409466,312.16896 L248.693089,303.350673 L255.334919,311.211613 C295.373045,301.221651 345,281.799109 345,281.799109 C345,281.799109 291.422589,285.784483 251.418786,276.918303 C233.719044,272.995452 215.508249,281.89652 208.244998,298.734239 C204.023308,308.520983 204.686327,317 219.659379,317 C224.718678,316.912362 229.763886,316.430943 234.750557,315.559982 L230.989609,303.350673 Z" id="Path" fill="#84A88C" fill-rule="nonzero"></path>
                <path d="M446,482.040749 L446,486.386013 C446,487.578572 445.774307,488.761038 445.327201,489.872246 C445.128638,490.367522 444.888801,490.846339 444.610064,491.303964 C442.817557,494.217285 439.573222,496.001489 436.070955,496 L105.929045,496 C102.426775,496.0015 99.1824341,494.217293 97.3899362,491.303964 C97.1111841,490.846347 96.8713472,490.367528 96.6727989,489.872246 C96.2256929,488.761038 96,487.578572 96,486.386013 L96,482.040749 C96,479.490752 97.0451809,477.045001 98.9073869,475.241881 C100.769593,473.438761 103.295488,472.426081 105.929045,472.426763 L124.959059,472.426763 L124.959059,470.400882 C124.958878,470.294508 125.00244,470.19244 125.080122,470.117222 C125.157805,470.042005 125.263217,470 125.373076,470 L135.302101,470 C135.411961,470 135.517373,470.042005 135.595055,470.117222 C135.672738,470.19244 135.716299,470.294508 135.716118,470.400882 L135.716118,472.426763 L141.918949,472.426763 L141.918949,470.400882 C141.918768,470.294508 141.96233,470.19244 142.040012,470.117222 C142.117695,470.042005 142.223107,470 142.332967,470 L152.261991,470 C152.371851,470 152.477263,470.042005 152.554945,470.117222 C152.632628,470.19244 152.676189,470.294508 152.676008,470.400882 L152.676008,472.426763 L158.886269,472.426763 L158.886269,470.400882 C158.886088,470.294508 158.92965,470.19244 159.007332,470.117222 C159.085015,470.042005 159.190427,470 159.300287,470 L169.229311,470 C169.339171,470 169.444583,470.042005 169.522265,470.117222 C169.599948,470.19244 169.643509,470.294508 169.643329,470.400882 L169.643329,472.426763 L175.846196,472.426763 L175.846196,470.400882 C175.846015,470.294508 175.889577,470.19244 175.967259,470.117222 C176.044942,470.042005 176.150354,470 176.260214,470 L186.189238,470 C186.299098,470 186.40451,470.042005 186.482192,470.117222 C186.559875,470.19244 186.603437,470.294508 186.603256,470.400882 L186.603256,472.426763 L192.806123,472.426763 L192.806123,470.400882 C192.805942,470.294508 192.849504,470.19244 192.927186,470.117222 C193.004869,470.042005 193.110281,470 193.220141,470 L203.149165,470 C203.259025,470 203.364437,470.042005 203.442119,470.117222 C203.519802,470.19244 203.563364,470.294508 203.563183,470.400882 L203.563183,472.426763 L209.773444,472.426763 L209.773444,470.400882 C209.773263,470.294508 209.816824,470.19244 209.894507,470.117222 C209.972189,470.042005 210.077601,470 210.187461,470 L220.116485,470 C220.226345,470 220.331757,470.042005 220.40944,470.117222 C220.487122,470.19244 220.530684,470.294508 220.530503,470.400882 L220.530503,472.426763 L226.733371,472.426763 L226.733371,470.400882 C226.73319,470.294508 226.776751,470.19244 226.854434,470.117222 C226.932116,470.042005 227.037528,470 227.147388,470 L304.923514,470 C305.033373,470 305.138785,470.042005 305.216468,470.117222 C305.294151,470.19244 305.337712,470.294508 305.337531,470.400882 L305.337531,472.426763 L311.547792,472.426763 L311.547792,470.400882 C311.547611,470.294508 311.591173,470.19244 311.668855,470.117222 C311.746538,470.042005 311.85195,470 311.961809,470 L321.890871,470 C322.118597,470.002158 322.30266,470.180381 322.304888,470.400882 L322.304888,472.426763 L328.507756,472.426763 L328.507756,470.400882 C328.507575,470.294508 328.551137,470.19244 328.628819,470.117222 C328.706502,470.042005 328.811914,470 328.921773,470 L338.850798,470 C338.960663,470 339.066084,470.041993 339.143774,470.117212 C339.221464,470.19243 339.265031,470.294502 339.264852,470.400882 L339.264852,472.426763 L345.46772,472.426763 L345.46772,470.400882 C345.467539,470.294508 345.511101,470.19244 345.588783,470.117222 C345.666466,470.042005 345.771878,470 345.881737,470 L355.810762,470 C355.920621,470 356.026034,470.042005 356.103716,470.117222 C356.181399,470.19244 356.22496,470.294508 356.224779,470.400882 L356.224779,472.426763 L362.43504,472.426763 L362.43504,470.400882 C362.434859,470.294508 362.478421,470.19244 362.556103,470.117222 C362.633786,470.042005 362.739198,470 362.849058,470 L372.778082,470 C373.004356,470.002751 373.185943,470.181773 373.184706,470.400882 L373.184706,472.426763 L379.394967,472.426763 L379.394967,470.400882 C379.394786,470.294508 379.438348,470.19244 379.51603,470.117222 C379.593713,470.042005 379.699125,470 379.808985,470 L389.738009,470 C389.847869,470 389.953281,470.042005 390.030963,470.117222 C390.108646,470.19244 390.152207,470.294508 390.152026,470.400882 L390.152026,472.426763 L396.354894,472.426763 L396.354894,470.400882 C396.354713,470.294508 396.398275,470.19244 396.475957,470.117222 C396.55364,470.042005 396.659052,470 396.768912,470 L406.697936,470 C406.807796,470 406.913208,470.042005 406.99089,470.117222 C407.068573,470.19244 407.112134,470.294508 407.111953,470.400882 L407.111953,472.426763 L436.070992,472.426763 C438.704542,472.426092 441.230426,473.438777 443.092624,475.241896 C444.954822,477.045014 446,479.490759 446,482.040749 L446,482.040749 Z" id="Path" fill="#3F3D56" fill-rule="nonzero"></path>
                <rect id="Rectangle" fill="#3F3D56" fill-rule="nonzero" x="0" y="489" width="542" height="2"></rect>
                <path d="M419.677889,296.5 L296.647045,296.5 L296.647045,294 L240.860097,294 L240.860097,296.5 L117.322111,296.5 C112.725936,296.5 109,300.173375 109,304.704713 L109,470.795257 C109,475.326602 112.725929,479 117.322111,479 L419.677889,479 C424.274071,479 428,475.326602 428,470.795257 L428,304.704713 C428,302.528687 427.123211,300.441785 425.562512,298.903102 C424.001814,297.364419 421.885051,296.5 419.677889,296.5 L419.677889,296.5 Z" id="Path" fill="#3F3D56" fill-rule="nonzero"></path>
                <ellipse id="Oval" stroke="#D0CDE1" stroke-width="2" cx="269" cy="353.5" rx="18" ry="18.5"></ellipse>
                <ellipse id="Oval" fill="#D0CDE1" fill-rule="nonzero" cx="262" cy="360.5" rx="18" ry="18.5"></ellipse>
                <rect id="Rectangle" fill="#D0CDE1" fill-rule="nonzero" x="14" y="482" width="21" height="21"></rect>
                <path d="M23,468 L23,492 L48,492 L48,468 L23,468 Z M46.9117647,490.955294 L24.0808824,490.955294 L24.0808824,469.044706 L46.9117647,469.044706 L46.9117647,490.955294 Z" id="Shape" fill="#3F3D56" fill-rule="nonzero"></path>
                <rect id="Rectangle" fill="#D0CDE1" fill-rule="nonzero" x="495" y="482" width="21" height="21"></rect>
                <path d="M503,468 L503,492 L528,492 L528,468 L503,468 Z M526.911765,490.955294 L504.080882,490.955294 L504.080882,469.044706 L526.911765,469.044706 L526.911765,490.955294 Z" id="Shape" fill="#3F3D56" fill-rule="nonzero"></path>
            </g>
        </g>
    </g>
</svg>