<?xml version="1.0" encoding="UTF-8"?>
<svg width="320px" height="298px" viewBox="0 0 320 298" version="1.1" xmlns="http://www.w3.org/2000/svg" xmlns:xlink="http://www.w3.org/1999/xlink">
    <title>Group 3</title>
    <g id="Page-1" stroke="none" stroke-width="1" fill="none" fill-rule="evenodd">
        <g id="Artboard" transform="translate(-440.000000, -3198.000000)">
            <g id="Group-3" transform="translate(403.464469, 3149.291125)">
                <polygon id="Path" fill="#D2E0D5" transform="translate(199.002653, 198.200622) scale(-1, 1) rotate(100.000000) translate(-199.002653, -198.200622) " points="234.318761 27 28 86.4941333 135.27136 369.401245 370.005306 312.779918"></polygon>
                <g id="browser" transform="translate(61.535531, 72.708875)" fill="#316252" fill-rule="nonzero">
                    <path d="M92.1137403,100.449839 C90.4987164,97.9226105 87.2249054,97.2389663 84.8021059,98.9247021 L37.3479273,131.924423 C35.8810659,132.944115 35,134.6612 35,136.500385 C35,138.339569 35.8810659,140.056655 37.3479273,141.076346 L84.8021059,174.076068 C87.21436,175.753553 90.4918619,175.089159 92.1137403,172.55093 C93.7292915,170.023702 93.0744238,166.608781 90.6516243,164.924145 L49.7782858,136.500385 L90.6516243,108.076625 C93.0744238,106.391989 93.7292915,102.977068 92.1137403,100.449839 L92.1137403,100.449839 Z" id="Path"></path>
                    <path d="M178.88626,172.55048 C180.506029,175.08486 183.781949,175.756404 186.197894,174.075618 L233.652073,141.075881 C235.118934,140.056189 236,138.338553 236,136.499918 C236,134.661283 235.118934,132.943646 233.652073,131.923954 L186.197894,98.9242181 C183.775095,97.2395816 180.501811,97.9221261 178.88626,100.449356 C177.270709,102.976586 177.925576,106.391508 180.348376,108.076145 L221.221714,136.499918 L180.348376,164.923691 C177.925576,166.608327 177.270709,170.02325 178.88626,172.55048 L178.88626,172.55048 Z" id="Path"></path>
                    <path d="M154.027796,98.5821353 C151.373251,97.2231408 148.144156,98.3247458 146.816615,101.041635 L114.568656,167.038938 C113.241115,169.755827 114.317122,173.059542 116.972204,174.417986 C119.633198,175.77918 122.858532,174.669326 124.183385,171.958487 L156.431344,105.961184 C157.758885,103.243745 156.682878,99.9400298 154.027796,98.5821353 L154.027796,98.5821353 Z" id="Path"></path>
                    <circle id="Oval" cx="135.5" cy="234.5" r="5.5"></circle>
                    <path d="M15.8789062,240 L111.681641,240 C114.604947,240 116.974609,237.558 116.974609,234.545455 C116.974609,231.532909 114.604947,229.090909 111.681641,229.090909 L15.8789062,229.090909 C12.9603633,229.090909 10.5859375,226.644 10.5859375,223.636364 L10.5859375,43.6363636 L260.414062,43.6363636 L260.414062,223.636364 C260.414062,226.644 258.039637,229.090909 255.121094,229.090909 L159.318359,229.090909 C156.395053,229.090909 154.025391,231.532909 154.025391,234.545455 C154.025391,237.558 156.395053,240 159.318359,240 L255.121094,240 C263.876723,240 271,232.659273 271,223.636364 L271,16.3636364 C271,7.34072727 263.876723,0 255.121094,0 L15.8789062,0 C7.12327734,0 0,7.34072727 0,16.3636364 L0,223.636364 C0,232.659273 7.12327734,240 15.8789062,240 Z M260.414062,16.3636364 L260.414062,32.7272727 L93.15625,32.7272727 L93.15625,10.9090909 L255.121094,10.9090909 C258.039637,10.9090909 260.414062,13.356 260.414062,16.3636364 Z M15.8789062,10.9090909 L82.5703125,10.9090909 L82.5703125,32.7272727 L10.5859375,32.7272727 L10.5859375,16.3636364 C10.5859375,13.356 12.9603633,10.9090909 15.8789062,10.9090909 Z" id="Shape"></path>
                </g>
            </g>
        </g>
    </g>
</svg>